PathFileType	4	(X/Y/Z)	C:\Users\italobelli\Desktop\GitHub\PTbot_officialCBL\Personal_Results\SHRUG22_noisy2.trc
DataRate	CameraRate	NumFrames	NumMarkers	Units	OrigDataRate	OrigDataStartFrame	OrigNumFrames
110.888889	110.888889	46	9	m	110.888889	1	500
Frame#	Time		gu		centelbow		EpL		centpxt8		centijc7		ij		ts		aa		ai
			X1	Y1	Z1	X2	Y2	Z2	X3	Y3	Z3	X4	Y4	Z4	X5	Y5	Z5	X6	Y6	Z6	X7	Y7	Z7	X8	Y8	Z8	X9	Y9	Z9

1	0	-0.08334	-0.016317	0.16417	-0.11153	-0.26255	0.17991	-0.0961	-0.25852	0.20793	-0.046816	-0.15316	-0.008669	-0.046816	0.031938	-0.008669	0	0	0	-0.13669	0.028104	0.050133	-0.10968	0.019363	0.16597	-0.15909	-0.083157	0.052326
2	0.009018	-0.083352	-0.016328	0.16414	-0.11152	-0.26261	0.17982	-0.09609	-0.25859	0.20784	-0.046816	-0.15316	-0.008669	-0.046816	0.031938	-0.008669	0	0	0	-0.13668	0.028095	0.050129	-0.10967	0.019346	0.16597	-0.15909	-0.083164	0.052314
3	0.018036	-0.083364	-0.016339	0.16411	-0.11151	-0.26268	0.17974	-0.096082	-0.25865	0.20776	-0.046816	-0.15316	-0.008669	-0.046816	0.031938	-0.008669	0	0	0	-0.13668	0.028086	0.050125	-0.10967	0.01933	0.16596	-0.1591	-0.08317	0.052303
4	0.027054	-0.083377	-0.016348	0.16408	-0.11151	-0.26273	0.17965	-0.096077	-0.25871	0.20767	-0.046816	-0.15316	-0.008669	-0.046816	0.031938	-0.008669	0	0	0	-0.13667	0.028079	0.05012	-0.10966	0.019315	0.16596	-0.1591	-0.083175	0.052291
5	0.036072	-0.08339	-0.016356	0.16405	-0.1115	-0.26279	0.17957	-0.096074	-0.25876	0.20759	-0.046816	-0.15316	-0.008669	-0.046816	0.031938	-0.008669	0	0	0	-0.13666	0.028072	0.050115	-0.10966	0.019302	0.16595	-0.15911	-0.08318	0.05228
6	0.04509	-0.083404	-0.016364	0.16403	-0.1115	-0.26284	0.17948	-0.096072	-0.25882	0.20751	-0.046816	-0.15316	-0.008669	-0.046816	0.031938	-0.008669	0	0	0	-0.13666	0.028066	0.05011	-0.10966	0.01929	0.16595	-0.15911	-0.083183	0.052268
7	0.054108	-0.083419	-0.016371	0.164	-0.1115	-0.26289	0.1794	-0.096073	-0.25887	0.20743	-0.046816	-0.15316	-0.008669	-0.046816	0.031938	-0.008669	0	0	0	-0.13665	0.02806	0.050104	-0.10966	0.01928	0.16594	-0.15912	-0.083186	0.052257
8	0.063126	-0.083434	-0.016377	0.16398	-0.1115	-0.26294	0.17932	-0.096076	-0.25892	0.20735	-0.046816	-0.15316	-0.008669	-0.046816	0.031938	-0.008669	0	0	0	-0.13664	0.028056	0.050098	-0.10966	0.01927	0.16594	-0.15912	-0.083188	0.052246
9	0.072144	-0.083449	-0.016382	0.16395	-0.1115	-0.26298	0.17924	-0.09608	-0.25896	0.20727	-0.046816	-0.15316	-0.008669	-0.046816	0.031938	-0.008669	0	0	0	-0.13664	0.028052	0.050091	-0.10966	0.019262	0.16593	-0.15913	-0.08319	0.052234
10	0.081162	-0.083465	-0.016386	0.16393	-0.1115	-0.26302	0.17917	-0.096087	-0.259	0.20719	-0.046816	-0.15316	-0.008669	-0.046816	0.031938	-0.008669	0	0	0	-0.13663	0.028049	0.050084	-0.10966	0.019255	0.16593	-0.15914	-0.08319	0.052223
11	0.09018	-0.083481	-0.01639	0.16391	-0.11151	-0.26306	0.17909	-0.096096	-0.25904	0.20712	-0.046816	-0.15316	-0.008669	-0.046816	0.031938	-0.008669	0	0	0	-0.13663	0.028046	0.050076	-0.10967	0.019249	0.16592	-0.15914	-0.08319	0.052212
12	0.099198	-0.083498	-0.016392	0.16388	-0.11152	-0.2631	0.17901	-0.096106	-0.25908	0.20704	-0.046816	-0.15316	-0.008669	-0.046816	0.031938	-0.008669	0	0	0	-0.13662	0.028044	0.050068	-0.10967	0.019245	0.16592	-0.15915	-0.083189	0.052201
13	0.10822	-0.083515	-0.016394	0.16386	-0.11153	-0.26313	0.17894	-0.096118	-0.25911	0.20697	-0.046816	-0.15316	-0.008669	-0.046816	0.031938	-0.008669	0	0	0	-0.13662	0.028043	0.05006	-0.10967	0.019241	0.16591	-0.15916	-0.083188	0.052189
14	0.11723	-0.083533	-0.016396	0.16384	-0.11154	-0.26316	0.17887	-0.096131	-0.25914	0.20689	-0.046816	-0.15316	-0.008669	-0.046816	0.031938	-0.008669	0	0	0	-0.13661	0.028043	0.050052	-0.10968	0.019238	0.1659	-0.15916	-0.083186	0.052178
15	0.12625	-0.083551	-0.016397	0.16382	-0.11155	-0.26319	0.17879	-0.096147	-0.25917	0.20682	-0.046816	-0.15316	-0.008669	-0.046816	0.031938	-0.008669	0	0	0	-0.13661	0.028043	0.050043	-0.10968	0.019237	0.1659	-0.15917	-0.083183	0.052167
16	0.13527	-0.083569	-0.016397	0.1638	-0.11156	-0.26322	0.17872	-0.096164	-0.25919	0.20675	-0.046816	-0.15316	-0.008669	-0.046816	0.031938	-0.008669	0	0	0	-0.1366	0.028043	0.050034	-0.10969	0.019236	0.16589	-0.15918	-0.083179	0.052156
17	0.14429	-0.083588	-0.016396	0.16379	-0.11157	-0.26324	0.17865	-0.096182	-0.25922	0.20668	-0.046816	-0.15316	-0.008669	-0.046816	0.031938	-0.008669	0	0	0	-0.1366	0.028044	0.050025	-0.1097	0.019236	0.16588	-0.15918	-0.083175	0.052145
18	0.15331	-0.083607	-0.016395	0.16377	-0.11159	-0.26326	0.17858	-0.096202	-0.25924	0.20661	-0.046816	-0.15316	-0.008669	-0.046816	0.031938	-0.008669	0	0	0	-0.1366	0.028046	0.050015	-0.10971	0.019237	0.16588	-0.15919	-0.083171	0.052134
19	0.16232	-0.083626	-0.016394	0.16375	-0.11161	-0.26328	0.17851	-0.096223	-0.25926	0.20655	-0.046816	-0.15316	-0.008669	-0.046816	0.031938	-0.008669	0	0	0	-0.13659	0.028048	0.050005	-0.10972	0.019239	0.16587	-0.1592	-0.083166	0.052123
20	0.17134	-0.083646	-0.016392	0.16374	-0.11162	-0.2633	0.17845	-0.096246	-0.25928	0.20648	-0.046816	-0.15316	-0.008669	-0.046816	0.031938	-0.008669	0	0	0	-0.13659	0.028051	0.049995	-0.10973	0.019242	0.16586	-0.15921	-0.08316	0.052112
21	0.18036	-0.083666	-0.016389	0.16372	-0.11164	-0.26332	0.17838	-0.09627	-0.25929	0.20641	-0.046816	-0.15316	-0.008669	-0.046816	0.031938	-0.008669	0	0	0	-0.13659	0.028054	0.049984	-0.10974	0.019245	0.16586	-0.15921	-0.083154	0.052101
22	0.18938	-0.083686	-0.016386	0.16371	-0.11166	-0.26333	0.17831	-0.096296	-0.25931	0.20635	-0.046816	-0.15316	-0.008669	-0.046816	0.031938	-0.008669	0	0	0	-0.13658	0.028058	0.049974	-0.10975	0.019249	0.16585	-0.15922	-0.083148	0.05209
23	0.1984	-0.083707	-0.016382	0.16369	-0.11169	-0.26334	0.17825	-0.096322	-0.25932	0.20629	-0.046816	-0.15316	-0.008669	-0.046816	0.031938	-0.008669	0	0	0	-0.13658	0.028062	0.049963	-0.10976	0.019254	0.16584	-0.15923	-0.083141	0.052079
24	0.20741	-0.083727	-0.016378	0.16368	-0.11171	-0.26335	0.17819	-0.09635	-0.25933	0.20622	-0.046816	-0.15316	-0.008669	-0.046816	0.031938	-0.008669	0	0	0	-0.13658	0.028067	0.049952	-0.10977	0.01926	0.16583	-0.15924	-0.083133	0.052068
25	0.21643	-0.083748	-0.016374	0.16367	-0.11173	-0.26336	0.17812	-0.096379	-0.25934	0.20616	-0.046816	-0.15316	-0.008669	-0.046816	0.031938	-0.008669	0	0	0	-0.13657	0.028072	0.049941	-0.10978	0.019266	0.16583	-0.15924	-0.083126	0.052057
26	0.22545	-0.083769	-0.016369	0.16366	-0.11176	-0.26337	0.17806	-0.096409	-0.25934	0.2061	-0.046816	-0.15316	-0.008669	-0.046816	0.031938	-0.008669	0	0	0	-0.13657	0.028078	0.049929	-0.10979	0.019272	0.16582	-0.15925	-0.083117	0.052046
27	0.23447	-0.083791	-0.016364	0.16365	-0.11179	-0.26338	0.178	-0.09644	-0.25935	0.20604	-0.046816	-0.15316	-0.008669	-0.046816	0.031938	-0.008669	0	0	0	-0.13657	0.028083	0.049918	-0.10981	0.01928	0.16581	-0.15926	-0.083109	0.052035
28	0.24349	-0.083812	-0.016359	0.16363	-0.11181	-0.26338	0.17794	-0.096472	-0.25935	0.20598	-0.046816	-0.15316	-0.008669	-0.046816	0.031938	-0.008669	0	0	0	-0.13657	0.02809	0.049906	-0.10982	0.019287	0.1658	-0.15927	-0.0831	0.052024
29	0.25251	-0.083834	-0.016353	0.16362	-0.11184	-0.26339	0.17788	-0.096505	-0.25936	0.20592	-0.046816	-0.15316	-0.008669	-0.046816	0.031938	-0.008669	0	0	0	-0.13656	0.028096	0.049894	-0.10983	0.019296	0.16579	-0.15928	-0.083091	0.052014
30	0.26152	-0.083856	-0.016347	0.16361	-0.11187	-0.26339	0.17782	-0.096539	-0.25936	0.20586	-0.046816	-0.15316	-0.008669	-0.046816	0.031938	-0.008669	0	0	0	-0.13656	0.028103	0.049882	-0.10985	0.019304	0.16579	-0.15929	-0.083081	0.052003
31	0.27054	-0.083878	-0.016341	0.16361	-0.1119	-0.26339	0.17776	-0.096574	-0.25936	0.2058	-0.046816	-0.15316	-0.008669	-0.046816	0.031938	-0.008669	0	0	0	-0.13656	0.02811	0.04987	-0.10986	0.019313	0.16578	-0.15929	-0.083072	0.051992
32	0.27956	-0.0839	-0.016334	0.1636	-0.11194	-0.26339	0.17771	-0.09661	-0.25936	0.20575	-0.046816	-0.15316	-0.008669	-0.046816	0.031938	-0.008669	0	0	0	-0.13656	0.028118	0.049858	-0.10988	0.019323	0.16577	-0.1593	-0.083061	0.051981
33	0.28858	-0.083922	-0.016328	0.16359	-0.11197	-0.26339	0.17765	-0.096646	-0.25936	0.20569	-0.046816	-0.15316	-0.008669	-0.046816	0.031938	-0.008669	0	0	0	-0.13655	0.028126	0.049845	-0.10989	0.019332	0.16576	-0.15931	-0.083051	0.05197
34	0.2976	-0.083944	-0.016321	0.16358	-0.112	-0.26339	0.17759	-0.096683	-0.25935	0.20564	-0.046816	-0.15316	-0.008669	-0.046816	0.031938	-0.008669	0	0	0	-0.13655	0.028134	0.049833	-0.10991	0.019342	0.16575	-0.15932	-0.083041	0.05196
35	0.30661	-0.083967	-0.016314	0.16357	-0.11204	-0.26338	0.17754	-0.096721	-0.25935	0.20558	-0.046816	-0.15316	-0.008669	-0.046816	0.031938	-0.008669	0	0	0	-0.13655	0.028142	0.049821	-0.10992	0.019353	0.16574	-0.15933	-0.08303	0.051949
36	0.31563	-0.083989	-0.016307	0.16357	-0.11207	-0.26338	0.17748	-0.096759	-0.25935	0.20553	-0.046816	-0.15316	-0.008669	-0.046816	0.031938	-0.008669	0	0	0	-0.13655	0.028151	0.049808	-0.10994	0.019363	0.16574	-0.15934	-0.083019	0.051938
37	0.32465	-0.084012	-0.0163	0.16356	-0.11211	-0.26338	0.17743	-0.096798	-0.25934	0.20547	-0.046816	-0.15316	-0.008669	-0.046816	0.031938	-0.008669	0	0	0	-0.13655	0.028159	0.049796	-0.10995	0.019374	0.16573	-0.15935	-0.083008	0.051927
38	0.33367	-0.084034	-0.016293	0.16355	-0.11215	-0.26337	0.17738	-0.096837	-0.25933	0.20542	-0.046816	-0.15316	-0.008669	-0.046816	0.031938	-0.008669	0	0	0	-0.13655	0.028168	0.049783	-0.10997	0.019384	0.16572	-0.15936	-0.082997	0.051917
39	0.34269	-0.084057	-0.016285	0.16355	-0.11218	-0.26337	0.17732	-0.096877	-0.25933	0.20537	-0.046816	-0.15316	-0.008669	-0.046816	0.031938	-0.008669	0	0	0	-0.13654	0.028178	0.049771	-0.10998	0.019395	0.16571	-0.15936	-0.082986	0.051906
40	0.3517	-0.084079	-0.016278	0.16354	-0.11222	-0.26336	0.17727	-0.096917	-0.25932	0.20532	-0.046816	-0.15316	-0.008669	-0.046816	0.031938	-0.008669	0	0	0	-0.13654	0.028187	0.049758	-0.11	0.019406	0.1657	-0.15937	-0.082974	0.051895
41	0.36072	-0.084102	-0.016271	0.16354	-0.11226	-0.26335	0.17722	-0.096958	-0.25931	0.20527	-0.046816	-0.15316	-0.008669	-0.046816	0.031938	-0.008669	0	0	0	-0.13654	0.028196	0.049746	-0.11001	0.019417	0.16569	-0.15938	-0.082963	0.051885
42	0.36974	-0.084124	-0.016264	0.16353	-0.1123	-0.26335	0.17717	-0.096999	-0.25931	0.20522	-0.046816	-0.15316	-0.008669	-0.046816	0.031938	-0.008669	0	0	0	-0.13654	0.028206	0.049733	-0.11003	0.019428	0.16568	-0.15939	-0.082952	0.051874
43	0.37876	-0.084146	-0.016257	0.16353	-0.11234	-0.26334	0.17712	-0.09704	-0.2593	0.20517	-0.046816	-0.15316	-0.008669	-0.046816	0.031938	-0.008669	0	0	0	-0.13654	0.028215	0.049721	-0.11004	0.019439	0.16568	-0.1594	-0.08294	0.051863
44	0.38778	-0.084169	-0.01625	0.16353	-0.11239	-0.26333	0.17707	-0.097081	-0.25929	0.20512	-0.046816	-0.15316	-0.008669	-0.046816	0.031938	-0.008669	0	0	0	-0.13654	0.028225	0.049709	-0.11006	0.01945	0.16567	-0.15941	-0.082929	0.051853
45	0.39679	-0.084191	-0.016243	0.16352	-0.11243	-0.26332	0.17702	-0.097122	-0.25928	0.20507	-0.046816	-0.15316	-0.008669	-0.046816	0.031938	-0.008669	0	0	0	-0.13654	0.028235	0.049696	-0.11008	0.01946	0.16566	-0.15942	-0.082917	0.051842
46	0.40581	-0.084213	-0.016236	0.16352	-0.11247	-0.26332	0.17697	-0.097164	-0.25927	0.20502	-0.046816	-0.15316	-0.008669	-0.046816	0.031938	-0.008669	0	0	0	-0.13653	0.028245	0.049684	-0.11009	0.019471	0.16565	-0.15942	-0.082906	0.051831
